<svg width="78" height="35" viewBox="0 0 78 35" fill="none" xmlns="http://www.w3.org/2000/svg">
<g clip-path="url(#clip0_3998_75233)">
<path d="M48.3277 24.701V22.0685H41.8526V18.7474H47.714V16.2566H41.8526V12.9759H48.3277V10.3434H38.9324V24.701H48.3277Z" fill="url(#paint0_linear_3998_75233)"/>
<path d="M63.0653 24.701V10.3434H60.1451V19.841L53.9027 10.3434H50.2632V24.701H53.1833V14.5149L59.997 24.701H63.0653Z" fill="url(#paint1_linear_3998_75233)"/>
<path d="M75.7781 13.7657C75.4396 12.1456 74.0429 10.0396 70.4034 10.0396C67.5679 10.0396 65.1769 11.9836 65.1769 14.5353C65.1769 16.7021 66.7216 18.1804 69.1126 18.6462L71.2073 19.0513C72.371 19.274 73.0274 19.9219 73.0274 20.7522C73.0274 21.7647 72.1594 22.5139 70.5937 22.5139C68.4778 22.5139 67.441 21.2382 67.314 19.8206L64.6055 20.5092C64.8382 22.5546 66.5946 25.0049 70.5723 25.0049C74.0642 25.0049 75.9898 22.7773 75.9898 20.5699C75.9898 18.5449 74.5296 16.8438 71.8002 16.3375L69.7051 15.9529C68.6048 15.7503 68.0758 15.1225 68.0758 14.3328C68.0758 13.381 69.0068 12.5101 70.4248 12.5101C72.329 12.5101 73.006 13.7455 73.1542 14.5353L75.7781 13.7657Z" fill="url(#paint2_linear_3998_75233)"/>
<path d="M4.43528 8.13368C4.75503 7.53792 5.2165 7.02997 5.77898 6.65471L15.2188 0.0627594L5.54656 16.0568C5.54656 16.0568 4.70147 14.6285 4.37187 13.9059C3.96115 12.9973 3.75402 12.0098 3.76497 11.0128C3.77593 10.0157 4.00471 9.0331 4.43528 8.13368ZM0.539366 19.1667C0.645948 20.6962 1.07807 22.1853 1.80681 23.5342C2.53555 24.8832 3.54407 26.0609 4.76485 26.9883L15.2061 34.2691C15.2061 34.2691 8.67343 24.8544 3.16339 15.4863C2.60556 14.4964 2.23054 13.4144 2.05632 12.2917C1.97918 11.7833 1.97918 11.2662 2.05632 10.7578C1.91265 11.0241 1.63376 11.5691 1.63376 11.5691C1.07507 12.7086 0.694571 13.9271 0.505559 15.1821C0.39677 16.5086 0.408084 17.8422 0.539366 19.1667ZM27.1599 20.4345C26.8219 19.7119 25.9852 18.2836 25.9852 18.2836L16.3301 34.2691L25.7697 27.6814C26.3323 27.3061 26.7936 26.7983 27.1135 26.2024C27.544 25.3031 27.7728 24.3204 27.7838 23.3234C27.7948 22.3263 27.5875 21.3388 27.1769 20.4302L27.1599 20.4345ZM30.9925 15.1693C30.8859 13.6398 30.4537 12.1508 29.725 10.8019C28.9963 9.45291 27.9877 8.27528 26.767 7.34772L16.3427 0.0627594C16.3427 0.0627594 22.871 9.47742 28.3854 18.8456C28.9417 19.8358 29.3152 20.9177 29.4881 22.0402C29.5654 22.5486 29.5654 23.0657 29.4881 23.5741C29.6318 23.3078 29.9107 22.7628 29.9107 22.7628C30.4694 21.6233 30.85 20.4047 31.0389 19.1498C31.1491 17.8234 31.1393 16.4898 31.0093 15.1652L30.9925 15.1693Z" fill="url(#paint3_linear_3998_75233)"/>
</g>
<defs>
<linearGradient id="paint0_linear_3998_75233" x1="50.7592" y1="38.3231" x2="32.0848" y2="-34.2818" gradientUnits="userSpaceOnUse">
<stop stop-color="#44BCF0"/>
<stop offset="0.378795" stop-color="#7298F8"/>
<stop offset="1" stop-color="#A099FF"/>
</linearGradient>
<linearGradient id="paint1_linear_3998_75233" x1="50.7602" y1="38.3231" x2="32.0858" y2="-34.2818" gradientUnits="userSpaceOnUse">
<stop stop-color="#44BCF0"/>
<stop offset="0.378795" stop-color="#7298F8"/>
<stop offset="1" stop-color="#A099FF"/>
</linearGradient>
<linearGradient id="paint2_linear_3998_75233" x1="50.7597" y1="38.3231" x2="32.0853" y2="-34.2818" gradientUnits="userSpaceOnUse">
<stop stop-color="#44BCF0"/>
<stop offset="0.378795" stop-color="#7298F8"/>
<stop offset="1" stop-color="#A099FF"/>
</linearGradient>
<linearGradient id="paint3_linear_3998_75233" x1="50.7598" y1="38.3232" x2="32.0854" y2="-34.2817" gradientUnits="userSpaceOnUse">
<stop stop-color="#44BCF0"/>
<stop offset="0.378795" stop-color="#7298F8"/>
<stop offset="1" stop-color="#A099FF"/>
</linearGradient>
<clipPath id="clip0_3998_75233">
<rect width="76.9644" height="34.2064" fill="white" transform="translate(0.431641 0.0627594)"/>
</clipPath>
</defs>
</svg>
