<svg width="20" height="22" viewBox="0 0 20 22" fill="none" xmlns="http://www.w3.org/2000/svg">
<path fill-rule="evenodd" clip-rule="evenodd" d="M8.66467 0.993881C3.86879 0.993881 0 4.92046 0 9.74053C0 14.5606 3.86879 18.4872 8.66467 18.4872C13.4605 18.4872 17.3293 14.5606 17.3293 9.74053C17.3293 7.42436 16.4191 5.20083 14.7955 3.55968C13.1714 1.91815 10.9663 0.993881 8.66467 0.993881ZM2.09024 9.74053C2.09024 6.05372 5.04423 3.08412 8.66467 3.08412C10.4047 3.08412 12.0757 3.78267 13.3095 5.02977C14.5437 6.27725 15.2391 7.97155 15.2391 9.74053C15.2391 13.4273 12.2851 16.3969 8.66467 16.3969C5.04423 16.3969 2.09024 13.4273 2.09024 9.74053ZM17.1111 16.6386C16.7029 16.2305 16.0412 16.2305 15.633 16.6386C15.2249 17.0468 15.2249 17.7085 15.633 18.1167L18.2164 20.7C18.6245 21.1082 19.2863 21.1082 19.6944 20.7C20.1026 20.2919 20.1026 19.6301 19.6944 19.222L17.1111 16.6386Z" fill="url(#paint0_linear_3057_70162)"/>
<defs>
<linearGradient id="paint0_linear_3057_70162" x1="2.42044" y1="-23.6045" x2="26.3688" y2="-14.2478" gradientUnits="userSpaceOnUse">
<stop stop-color="#4368EA"/>
<stop offset="1" stop-color="#C490DD"/>
</linearGradient>
</defs>
</svg>
